<?xml version="1.0" encoding="utf-8"?>
<!-- Generator: Adobe Illustrator 17.1.0, SVG Export Plug-In . SVG Version: 6.00 Build 0)  -->
<!DOCTYPE svg PUBLIC "-//W3C//DTD SVG 1.1//EN" "http://www.w3.org/Graphics/SVG/1.1/DTD/svg11.dtd" [
	<!ENTITY ns_flows "http://ns.adobe.com/Flows/1.0/">
	<!ENTITY ns_extend "http://ns.adobe.com/Extensibility/1.0/">
	<!ENTITY ns_ai "http://ns.adobe.com/AdobeIllustrator/10.0/">
	<!ENTITY ns_graphs "http://ns.adobe.com/Graphs/1.0/">
]>
<svg version="1.1" id="Layer_1" xmlns:x="&ns_extend;" xmlns:i="&ns_ai;" xmlns:graph="&ns_graphs;"
	 xmlns="http://www.w3.org/2000/svg" xmlns:xlink="http://www.w3.org/1999/xlink" xmlns:a="http://ns.adobe.com/AdobeSVGViewerExtensions/3.0/"
	 x="0px" y="0px" viewBox="0 0 128 128" enable-background="new 0 0 128 128" xml:space="preserve">
<g>
	<path fill="#F05A29" d="M52.154,51.104H12.621c-0.828,0-1.5-0.671-1.5-1.5v-30.5c0-0.829,0.672-1.5,1.5-1.5h39.533
		c0.828,0,1.5,0.671,1.5,1.5v30.5C53.654,50.432,52.982,51.104,52.154,51.104z M14.121,48.104h36.533v-27.5H14.121V48.104z"/>
</g>
<path fill="#F05A29" d="M126.654,50.874c-2.155-2.153-5.017-3.339-8.061-3.34c-0.001,0-0.001,0-0.001,0
	c-3.044,0-5.906,1.187-8.059,3.34l-3.285,3.327c-1.111-0.749-2.442-1.187-3.873-1.187c-3.885,0-7.045,3.198-7.045,7.129
	c0,0.31,0.026,0.615,0.064,0.915c-2.691,2.086-4.43,5.344-4.43,9.004c0,6.287,5.114,11.402,11.4,11.402
	c10.093,0,18.305,8.212,18.305,18.305c0,10.314-8.392,18.705-18.697,18.705c-4.995-0.03-9.68-2.006-13.189-5.561
	c-3.511-3.556-5.427-8.266-5.395-13.263c0.002-0.252-0.06-0.499-0.179-0.721l-0.208-0.386V59.451
	c0-6.289-5.116-11.404-11.404-11.404h-8.401V14.026c0-4.136-3.364-7.5-7.5-7.5H8.406c-4.136,0-7.5,3.364-7.5,7.5V118.92
	c0,0.828,0.672,1.5,1.5,1.5h60.29c0.828,0,1.5-0.672,1.5-1.5V51.047h8.401c4.634,0,8.404,3.77,8.404,8.404v39.471
	c0,0.248,0.062,0.492,0.179,0.711l0.209,0.388c0.062,5.653,2.276,10.967,6.259,15c4.073,4.126,9.51,6.418,15.315,6.453
	c11.969,0,21.706-9.737,21.706-21.705c0-11.747-9.558-21.305-21.305-21.305c-4.632,0-8.4-3.77-8.4-8.402
	c0-2.346,0.968-4.469,2.522-5.994c1.261,1.949,3.427,3.241,5.888,3.241c3.874,0,7.026-3.215,7.026-7.166
	c0-1.387-0.398-2.679-1.077-3.775l3.331-3.373c1.585-1.587,3.693-2.461,5.937-2.461c2.243,0,4.353,0.875,5.941,2.462
	c0.586,0.585,1.535,0.585,2.121-0.001C127.24,52.409,127.24,51.459,126.654,50.874z M8.406,9.526h48.29c2.482,0,4.5,2.019,4.5,4.5
	V117.42H3.906V14.026C3.906,11.545,5.925,9.526,8.406,9.526z M103.375,64.309c-2.23,0-4.045-1.869-4.045-4.166
	c0-2.277,1.814-4.129,4.045-4.129c2.22,0,4.026,1.852,4.026,4.129C107.401,62.44,105.595,64.309,103.375,64.309z"/>
</svg>
