<?xml version="1.0" encoding="utf-8"?>
<!-- Generator: Adobe Illustrator 17.1.0, SVG Export Plug-In . SVG Version: 6.00 Build 0)  -->
<!DOCTYPE svg PUBLIC "-//W3C//DTD SVG 1.1//EN" "http://www.w3.org/Graphics/SVG/1.1/DTD/svg11.dtd" [
	<!ENTITY ns_flows "http://ns.adobe.com/Flows/1.0/">
	<!ENTITY ns_extend "http://ns.adobe.com/Extensibility/1.0/">
	<!ENTITY ns_ai "http://ns.adobe.com/AdobeIllustrator/10.0/">
	<!ENTITY ns_graphs "http://ns.adobe.com/Graphs/1.0/">
]>
<svg version="1.1" id="Layer_1" xmlns:x="&ns_extend;" xmlns:i="&ns_ai;" xmlns:graph="&ns_graphs;"
	 xmlns="http://www.w3.org/2000/svg" xmlns:xlink="http://www.w3.org/1999/xlink" xmlns:a="http://ns.adobe.com/AdobeSVGViewerExtensions/3.0/"
	 x="0px" y="0px" viewBox="0 0 128 128" enable-background="new 0 0 128 128" xml:space="preserve">
<path fill="#F05A29" d="M117.37,60.607h-7.385v-8.1c0-0.829-0.672-1.5-1.5-1.5H2c-0.828,0-1.5,0.671-1.5,1.5v16.639
	c0,30.186,24.558,54.744,54.742,54.744c26.217,0,48.178-18.529,53.502-43.176v0.146h8.626c5.586,0,10.13-4.542,10.13-10.125
	C127.5,65.15,122.956,60.607,117.37,60.607z M55.242,120.891c-27.676,0-50.344-21.843-51.678-49.195h103.356
	C105.587,99.048,82.919,120.891,55.242,120.891z M106.985,68.695H3.5V54.008h103.485V68.695z M117.37,77.86h-8.086
	c0.456-2.839,0.701-5.748,0.701-8.714v-5.539h7.385c3.932,0,7.13,3.197,7.13,7.128C124.5,74.664,121.302,77.86,117.37,77.86z"/>
<g>
	<path fill="#F05A29" d="M30.883,41.137c-5.583,0-10.126-4.543-10.126-10.127c0-5.583,4.543-10.125,10.126-10.125
		c3.93,0,7.127-3.198,7.127-7.128c0-3.93-3.197-7.127-7.127-7.127c-0.828,0-1.5-0.671-1.5-1.5s0.672-1.5,1.5-1.5
		c5.584,0,10.127,4.543,10.127,10.127c0,5.584-4.543,10.128-10.127,10.128c-3.93,0-7.126,3.196-7.126,7.125
		c0,3.93,3.196,7.127,7.126,7.127c0.828,0,1.5,0.671,1.5,1.5C32.383,40.465,31.711,41.137,30.883,41.137z"/>
</g>
<g>
	<path fill="#F05A29" d="M56.767,41.137c-5.584,0-10.128-4.543-10.129-10.126c0.001-5.583,4.545-10.125,10.129-10.125
		c3.928,0,7.124-3.198,7.124-7.128c0-3.93-3.196-7.127-7.124-7.127c-0.828,0-1.5-0.671-1.5-1.5s0.672-1.5,1.5-1.5
		c5.582,0,10.124,4.543,10.124,10.127c0,5.584-4.542,10.128-10.124,10.128c-3.93,0-7.128,3.196-7.129,7.125
		c0.001,3.929,3.199,7.126,7.129,7.126c0.828,0,1.5,0.671,1.5,1.5C58.267,40.465,57.595,41.137,56.767,41.137z"/>
</g>
<g>
	<path fill="#F05A29" d="M82.646,41.137c-5.583,0-10.126-4.543-10.127-10.126c0.001-5.583,4.544-10.125,10.127-10.125
		c3.931,0,7.128-3.198,7.128-7.128c0-3.93-3.197-7.127-7.128-7.127c-0.828,0-1.5-0.671-1.5-1.5s0.672-1.5,1.5-1.5
		c5.585,0,10.128,4.543,10.128,10.127c0,5.584-4.543,10.128-10.128,10.128c-3.929,0-7.126,3.196-7.127,7.125
		c0.001,3.929,3.198,7.126,7.127,7.126c0.828,0,1.5,0.671,1.5,1.5C84.146,40.465,83.475,41.137,82.646,41.137z"/>
</g>
</svg>
