<?xml version="1.0" encoding="utf-8"?>
<!-- Generator: Adobe Illustrator 18.0.0, SVG Export Plug-In . SVG Version: 6.00 Build 0)  -->
<!DOCTYPE svg PUBLIC "-//W3C//DTD SVG 1.1//EN" "http://www.w3.org/Graphics/SVG/1.1/DTD/svg11.dtd">
<svg version="1.1" id="Layer_1" xmlns="http://www.w3.org/2000/svg" xmlns:xlink="http://www.w3.org/1999/xlink" x="0px" y="0px"
	 viewBox="0 0 144 216" enable-background="new 0 0 144 216" xml:space="preserve">
<g>
	<path fill="#F15B2A" d="M126.1,212.9c4.1,4.1,10.7,4.1,14.8,0c4.1-4.1,4.1-10.7,0-14.8l-28.6-28.6l18.1-18.1
		c8.4-8.4,13.6-20,13.6-32.9C144,92.8,123.2,72,97.5,72C71.8,72,51,92.8,51,118.5c0,12.8,5.2,24.5,13.6,32.9h0l18.1,18.1l-18.1,18.1
		c-4.6,4.6-11,7.5-18.1,7.5c-14.1,0-25.6-11.5-25.6-25.6v-159C20.9,4.7,16.2,0,10.5,0C4.7,0,0,4.7,0,10.5v159
		C0,195.2,20.8,216,46.5,216c12.8,0,24.5-5.2,32.9-13.6l18.1-18.1L126.1,212.9z M79.4,136.6c-4.6-4.6-7.5-11-7.5-18.1
		c0-14.1,11.5-25.6,25.6-25.6c14.1,0,25.6,11.5,25.6,25.6c0,7.1-2.9,13.5-7.5,18.1h0l-18.1,18.1L79.4,136.6z"/>
</g>
</svg>
