<?xml version="1.0" encoding="utf-8"?>
<!-- Generator: Adobe Illustrator 17.1.0, SVG Export Plug-In . SVG Version: 6.00 Build 0)  -->
<!DOCTYPE svg PUBLIC "-//W3C//DTD SVG 1.1//EN" "http://www.w3.org/Graphics/SVG/1.1/DTD/svg11.dtd" [
	<!ENTITY ns_flows "http://ns.adobe.com/Flows/1.0/">
	<!ENTITY ns_extend "http://ns.adobe.com/Extensibility/1.0/">
	<!ENTITY ns_ai "http://ns.adobe.com/AdobeIllustrator/10.0/">
	<!ENTITY ns_graphs "http://ns.adobe.com/Graphs/1.0/">
]>
<svg version="1.1" id="Layer_1" xmlns:x="&ns_extend;" xmlns:i="&ns_ai;" xmlns:graph="&ns_graphs;"
	 xmlns="http://www.w3.org/2000/svg" xmlns:xlink="http://www.w3.org/1999/xlink" xmlns:a="http://ns.adobe.com/AdobeSVGViewerExtensions/3.0/"
	 x="0px" y="0px" viewBox="0 0 128 128" enable-background="new 0 0 128 128" xml:space="preserve">
<g>
	<path fill="#F05A29" d="M-940.557-114.537h-1.106v-48.41c0-3.033-2.468-5.5-5.5-5.5h-101.873c-3.033,0-5.5,2.467-5.5,5.5v38.126
		h-2.02c-3.033,0-5.5,2.467-5.5,5.5v51.996c0,3.032,2.467,5.5,5.5,5.5h35.546c3.033,0,5.5-2.468,5.5-5.5v-23.048h10.643v10.04
		h-5.422c-0.829,0-1.5,0.672-1.5,1.5s0.671,1.5,1.5,1.5h29.232c0.828,0,1.5-0.672,1.5-1.5s-0.672-1.5-1.5-1.5h-5.421v-10.04h23.944
		v16.562c0,3.032,2.468,5.5,5.5,5.5h16.477c3.032,0,5.5-2.468,5.5-5.5v-35.227C-935.057-112.07-937.524-114.537-940.557-114.537z
		 M-1018.51-67.325c0,1.379-1.122,2.5-2.5,2.5h-35.546c-1.378,0-2.5-1.121-2.5-2.5v-4.286h40.546V-67.325z M-1018.51-74.611h-40.546
		v-44.71c0-1.378,1.122-2.5,2.5-2.5l35.546-0.001c1.378,0,2.5,1.122,2.5,2.5V-74.611z M-989.477-80.333h-12.39v-10.04h12.39V-80.333
		z M-1015.51-93.373v-9.548h52.977v9.548H-1015.51z M-962.533-109.037v3.116h-52.977v-13.401c0-3.033-2.467-5.5-5.5-5.5
		l-30.525,0.001v-38.126c0-1.378,1.122-2.5,2.5-2.5h101.873c1.379,0,2.5,1.122,2.5,2.5v48.41h-12.371
		C-960.065-114.537-962.533-112.07-962.533-109.037z M-938.057-73.811c0,1.379-1.121,2.5-2.5,2.5h-16.477
		c-1.379,0-2.5-1.121-2.5-2.5v-4.08h21.477V-73.811z M-938.057-80.891h-21.477v-28.146c0-1.379,1.121-2.5,2.5-2.5h16.477
		c1.379,0,2.5,1.121,2.5,2.5V-80.891z"/>
</g>
<path fill="#F05A29" d="M-727.465-120.393h-7.385v-8.1c0-0.829-0.672-1.5-1.5-1.5h-106.485c-0.828,0-1.5,0.671-1.5,1.5v16.639
	c0,30.186,24.558,54.744,54.742,54.744c26.217,0,48.178-18.529,53.502-43.176v0.146h8.626c5.586,0,10.13-4.542,10.13-10.125
	C-717.335-115.85-721.879-120.393-727.465-120.393z M-789.593-60.109c-27.676,0-50.344-21.843-51.678-49.195h103.357
	C-739.248-81.952-761.916-60.109-789.593-60.109z M-737.85-112.305h-103.485v-14.688h103.485V-112.305z M-727.465-103.14h-8.086
	c0.456-2.839,0.701-5.748,0.701-8.714v-5.539h7.385c3.932,0,7.13,3.197,7.13,7.128C-720.335-106.336-723.533-103.14-727.465-103.14z
	"/>
<g>
	<path fill="#F05A29" d="M-813.952-139.863c-5.583,0-10.126-4.543-10.126-10.127c0-5.583,4.543-10.125,10.126-10.125
		c3.93,0,7.127-3.198,7.127-7.128c0-3.93-3.197-7.127-7.127-7.127c-0.828,0-1.5-0.671-1.5-1.5s0.672-1.5,1.5-1.5
		c5.584,0,10.127,4.543,10.127,10.127c0,5.584-4.543,10.128-10.127,10.128c-3.93,0-7.126,3.196-7.126,7.125
		c0,3.93,3.196,7.127,7.126,7.127c0.828,0,1.5,0.671,1.5,1.5S-813.124-139.863-813.952-139.863z"/>
</g>
<g>
	<path fill="#F05A29" d="M-788.068-139.863c-5.584,0-10.128-4.543-10.129-10.126c0.001-5.583,4.545-10.126,10.129-10.126
		c3.928,0,7.124-3.198,7.124-7.128c0-3.93-3.196-7.127-7.124-7.127c-0.828,0-1.5-0.671-1.5-1.5s0.672-1.5,1.5-1.5
		c5.582,0,10.124,4.543,10.124,10.127c0,5.584-4.542,10.128-10.124,10.128c-3.93,0-7.128,3.196-7.129,7.126
		c0.001,3.929,3.199,7.126,7.129,7.126c0.828,0,1.5,0.671,1.5,1.5S-787.24-139.863-788.068-139.863z"/>
</g>
<g>
	<path fill="#F05A29" d="M-762.188-139.863c-5.583,0-10.126-4.543-10.127-10.126c0.001-5.583,4.544-10.126,10.127-10.126
		c3.931,0,7.128-3.198,7.128-7.128c0-3.93-3.197-7.127-7.128-7.127c-0.828,0-1.5-0.671-1.5-1.5s0.672-1.5,1.5-1.5
		c5.585,0,10.128,4.543,10.128,10.127c0,5.584-4.543,10.128-10.128,10.128c-3.929,0-7.126,3.196-7.127,7.126
		c0.001,3.929,3.198,7.126,7.127,7.126c0.828,0,1.5,0.671,1.5,1.5S-761.36-139.863-762.188-139.863z"/>
</g>
<g>
	<path fill="#F05A29" d="M-571.162-129.896h-39.533c-0.828,0-1.5-0.671-1.5-1.5v-30.5c0-0.829,0.672-1.5,1.5-1.5h39.533
		c0.828,0,1.5,0.671,1.5,1.5v30.5C-569.662-130.568-570.334-129.896-571.162-129.896z M-609.195-132.896h36.533v-27.5h-36.533
		V-132.896z"/>
</g>
<path fill="#F05A29" d="M-496.662-130.126c-2.155-2.153-5.017-3.339-8.061-3.34c-0.001,0-0.001,0-0.001,0
	c-3.044,0-5.906,1.186-8.059,3.34l-3.285,3.327c-1.111-0.749-2.442-1.187-3.873-1.187c-3.885,0-7.045,3.198-7.045,7.129
	c0,0.311,0.026,0.615,0.065,0.915c-2.69,2.086-4.43,5.344-4.43,9.004c0,6.287,5.114,11.402,11.4,11.402
	c10.093,0,18.305,8.212,18.305,18.305c0,10.314-8.392,18.705-18.697,18.705c-4.995-0.03-9.68-2.006-13.189-5.56
	c-3.511-3.556-5.427-8.266-5.395-13.263c0.002-0.252-0.06-0.499-0.179-0.721l-0.208-0.386v-39.093
	c0-6.289-5.116-11.404-11.404-11.404h-8.401v-34.021c0-4.136-3.364-7.5-7.5-7.5h-48.29c-4.136,0-7.5,3.364-7.5,7.5V-62.08
	c0,0.828,0.672,1.5,1.5,1.5h60.29c0.828,0,1.5-0.672,1.5-1.5v-67.873h8.401c4.634,0,8.404,3.77,8.404,8.404v39.471
	c0,0.248,0.061,0.492,0.179,0.711l0.209,0.388c0.062,5.653,2.276,10.967,6.259,15c4.073,4.126,9.51,6.418,15.315,6.453
	c11.969,0,21.706-9.737,21.706-21.705c0-11.747-9.558-21.305-21.305-21.305c-4.632,0-8.4-3.77-8.4-8.402
	c0-2.346,0.968-4.469,2.522-5.994c1.261,1.949,3.427,3.241,5.888,3.241c3.874,0,7.026-3.215,7.026-7.166
	c0-1.387-0.398-2.679-1.077-3.775l3.331-3.373c1.585-1.587,3.693-2.461,5.937-2.461c2.243,0,4.353,0.874,5.941,2.462
	c0.586,0.585,1.535,0.585,2.121-0.001C-496.076-128.591-496.076-129.54-496.662-130.126z M-614.91-171.474h48.29
	c2.482,0,4.5,2.019,4.5,4.5V-63.58h-57.29v-103.394C-619.41-169.455-617.392-171.474-614.91-171.474z M-519.941-116.691
	c-2.23,0-4.045-1.869-4.045-4.166c0-2.277,1.815-4.129,4.045-4.129c2.22,0,4.026,1.852,4.026,4.129
	C-515.915-118.56-517.722-116.691-519.941-116.691z"/>
<g>
	<path fill="#F05A29" d="M-300.559-53.5c-6.767,0-12.272-5.62-12.272-12.528c0-6.457,9.99-18.389,11.13-19.728
		c0.57-0.669,1.715-0.67,2.285,0c1.14,1.339,11.134,13.271,11.134,19.728C-288.282-59.12-293.789-53.5-300.559-53.5z
		 M-300.559-82.427c-3.358,4.178-9.272,12.371-9.272,16.399c0,5.254,4.159,9.528,9.272,9.528c5.115,0,9.276-4.274,9.276-9.528
		C-291.282-70.059-297.198-78.25-300.559-82.427z"/>
</g>
<path fill="#F05A29" d="M-280.812-103.224h-3.709v-18.785c0-14.954-11.9-27.12-26.527-27.12h-31.781v-6.109
	c0-0.829-0.672-1.5-1.5-1.5h-4.549v-10.952h7.456c4.136,0,7.5-2.873,7.5-6.405c0-3.532-3.364-6.405-7.5-6.405h-27.488
	c-4.136,0-7.5,2.873-7.5,6.405c0,3.532,3.364,6.405,7.5,6.405h7.452v10.952h-4.123c-0.828,0-1.5,0.671-1.5,1.5v6.109h-26.105
	c-0.828,0-1.5,0.671-1.5,1.5v28.522c0,0.829,0.672,1.5,1.5,1.5h67.782c4.213,0,8.714,1.913,8.714,7.284v7.1h-3.607
	c-0.828,0-1.5,0.672-1.5,1.5v9.809c0,0.828,0.672,1.5,1.5,1.5h39.486c0.828,0,1.5-0.672,1.5-1.5v-9.809
	C-279.312-102.552-279.984-103.224-280.812-103.224z M-373.411-174.095c0-1.846,2.061-3.405,4.5-3.405h27.488
	c2.439,0,4.5,1.559,4.5,3.405s-2.061,3.405-4.5,3.405h-27.488C-371.351-170.69-373.411-172.249-373.411-174.095z M-358.459-167.69
	h6.58v10.952h-6.58V-167.69z M-364.082-153.738h18.252v4.609h-18.252V-153.738z M-325.405-120.607h-66.282v-25.522h80.639
	c12.973,0,23.527,10.82,23.527,24.12v18.785h-26.17v-7.1C-313.691-116.475-318.398-120.607-325.405-120.607z M-282.312-93.415
	h-36.486v-6.809h36.486V-93.415z"/>
<g>
	<g>
		<path fill="#F05A29" d="M450.13-55.5c-34.463,0-62.5-28.037-62.5-62.5c0-34.462,28.037-62.5,62.5-62.5s62.5,28.038,62.5,62.5
			C512.63-83.537,484.593-55.5,450.13-55.5z M450.13-177.5c-32.809,0-59.5,26.691-59.5,59.5s26.691,59.5,59.5,59.5
			s59.5-26.691,59.5-59.5S482.939-177.5,450.13-177.5z"/>
	</g>
	<g>
		<path fill="#F05A29" d="M449.777-65.617c-0.003,0-0.006,0-0.01,0c-0.828-0.005-1.495-0.681-1.49-1.51l0.025-4.001
			c0.005-0.825,0.676-1.49,1.5-1.49c0.003,0,0.006,0,0.01,0c0.828,0.005,1.495,0.681,1.49,1.51l-0.025,4.001
			C451.272-66.282,450.602-65.617,449.777-65.617z"/>
	</g>
	<g>
		<path fill="#F05A29" d="M450.07-162.598c-0.003,0-0.006,0-0.01,0c-0.828-0.005-1.495-0.681-1.49-1.509l0.025-4.002
			c0.005-0.825,0.676-1.491,1.5-1.491c0.003,0,0.006,0,0.01,0c0.828,0.005,1.495,0.681,1.49,1.509l-0.025,4.002
			C451.565-163.263,450.895-162.598,450.07-162.598z"/>
	</g>
	<g>
		<path fill="#F05A29" d="M402.937-115.736c-0.003,0-0.006,0-0.01,0l-3.999-0.025c-0.828-0.005-1.495-0.681-1.49-1.51
			c0.005-0.825,0.676-1.49,1.5-1.49c0.003,0,0.006,0,0.01,0l3.999,0.025c0.828,0.005,1.495,0.681,1.49,1.51
			C404.432-116.402,403.761-115.736,402.937-115.736z"/>
	</g>
	<g>
		<path fill="#F05A29" d="M500.936-115.438c-0.003,0-0.007,0-0.01,0l-4.001-0.027c-0.829-0.006-1.496-0.682-1.49-1.51
			c0.005-0.828,0.674-1.539,1.51-1.49l4.001,0.027c0.829,0.006,1.496,0.682,1.49,1.51
			C502.43-116.103,501.76-115.438,500.936-115.438z"/>
	</g>
	<g>
		<path fill="#F05A29" d="M474.9-72.364c-0.521,0-1.026-0.271-1.304-0.756l-1.984-3.474c-0.411-0.72-0.16-1.636,0.559-2.047
			c0.718-0.408,1.636-0.161,2.047,0.559l1.984,3.474c0.411,0.72,0.16,1.636-0.559,2.047C475.408-72.428,475.152-72.364,474.9-72.364
			z"/>
	</g>
	<g>
		<path fill="#F05A29" d="M426.776-156.566c-0.521,0-1.026-0.271-1.304-0.756l-1.985-3.474c-0.41-0.719-0.161-1.635,0.559-2.046
			c0.717-0.41,1.635-0.163,2.047,0.558l1.985,3.474c0.41,0.719,0.161,1.635-0.559,2.046
			C427.285-156.63,427.029-156.566,426.776-156.566z"/>
	</g>
	<g>
		<path fill="#F05A29" d="M405.818-90.455c-0.52,0-1.026-0.271-1.304-0.756c-0.411-0.72-0.16-1.636,0.559-2.047l3.473-1.983
			c0.72-0.408,1.635-0.161,2.047,0.559c0.411,0.72,0.16,1.636-0.559,2.047l-3.473,1.983
			C406.326-90.519,406.071-90.455,405.818-90.455z"/>
	</g>
	<g>
		<path fill="#F05A29" d="M490.903-139.08c-0.521,0-1.026-0.271-1.303-0.756c-0.411-0.719-0.162-1.636,0.558-2.047l3.474-1.986
			c0.718-0.41,1.635-0.162,2.046,0.558c0.411,0.719,0.162,1.636-0.558,2.047l-3.474,1.986
			C491.412-139.144,491.156-139.08,490.903-139.08z"/>
	</g>
	<g>
		<path fill="#F05A29" d="M493.48-90.803c-0.257,0-0.518-0.066-0.755-0.204l-3.455-2.017c-0.716-0.418-0.957-1.337-0.54-2.052
			c0.419-0.716,1.338-0.957,2.052-0.54l3.455,2.017c0.716,0.418,0.957,1.337,0.54,2.052
			C494.498-91.069,493.996-90.803,493.48-90.803z"/>
	</g>
	<g>
		<path fill="#F05A29" d="M409.658-139.584c-0.257,0-0.518-0.066-0.755-0.205l-3.454-2.016c-0.716-0.417-0.957-1.336-0.54-2.051
			c0.418-0.716,1.338-0.956,2.052-0.54l3.454,2.016c0.716,0.417,0.957,1.336,0.54,2.051
			C410.676-139.85,410.174-139.584,409.658-139.584z"/>
	</g>
	<g>
		<path fill="#F05A29" d="M424.629-71.867c-0.258,0-0.518-0.065-0.756-0.205c-0.715-0.418-0.956-1.336-0.538-2.052l2.018-3.454
			c0.417-0.717,1.336-0.958,2.052-0.538c0.715,0.418,0.956,1.336,0.538,2.052l-2.018,3.454
			C425.647-72.133,425.145-71.867,424.629-71.867z"/>
	</g>
	<g>
		<path fill="#F05A29" d="M473.92-156.57c-0.257,0-0.518-0.066-0.755-0.205c-0.716-0.417-0.957-1.336-0.539-2.052l2.017-3.454
			c0.417-0.716,1.338-0.957,2.051-0.539c0.716,0.417,0.957,1.336,0.539,2.052l-2.017,3.454
			C474.938-156.836,474.436-156.57,473.92-156.57z"/>
	</g>
	<g>
		<path fill="#F05A29" d="M445.956-103.649c-0.001,0-0.002,0-0.003,0c-0.403-0.001-0.789-0.164-1.07-0.452l-14.742-15.092
			c-0.579-0.593-0.567-1.542,0.025-2.122c0.592-0.578,1.543-0.567,2.121,0.025l13.674,13.998l25.023-25.405
			c0.58-0.59,1.531-0.597,2.121-0.016c0.59,0.582,0.598,1.531,0.016,2.122l-26.097,26.495
			C446.743-103.811,446.358-103.649,445.956-103.649z"/>
	</g>
</g>
<g>
	<g>
		<path fill="#F05A29" d="M-85.367-114.102c-0.828,0-1.5-0.672-1.5-1.5c0-4.196-3.413-7.61-7.607-7.61
			c-4.196,0-7.609,3.414-7.609,7.61c0,0.828-0.672,1.5-1.5,1.5c-0.828,0-1.5-0.672-1.5-1.5c0-5.85,4.76-10.61,10.609-10.61
			c5.849,0,10.607,4.76,10.607,10.61C-83.867-114.773-84.539-114.102-85.367-114.102z"/>
	</g>
	<g>
		<path fill="#F05A29" d="M-146.855-114.102c-0.828,0-1.5-0.672-1.5-1.5c0-4.196-3.413-7.61-7.609-7.61
			c-4.194,0-7.607,3.414-7.607,7.61c0,0.828-0.672,1.5-1.5,1.5c-0.828,0-1.5-0.672-1.5-1.5c0-5.85,4.759-10.61,10.607-10.61
			c5.85,0,10.609,4.76,10.609,10.61C-145.355-114.773-146.027-114.102-146.855-114.102z"/>
	</g>
	<path fill="#F05A29" d="M-73.778-135.805h-122c-0.828,0-1.5,0.671-1.5,1.5c0,0.159,0.031,0.309,0.077,0.452h-0.077v7.482
		c0,4.136,3.364,7.5,7.5,7.5h0.814v13.815c0,4.136,3.364,7.5,7.5,7.5h39.646c4.136,0,7.5-3.364,7.5-7.5v-27.749h7.392v27.749
		c0,4.136,3.364,7.5,7.5,7.5h39.648c4.136,0,7.5-3.364,7.5-7.5v-29.249C-72.278-135.133-72.95-135.805-73.778-135.805z
		 M-194.278-126.371v-6.434h15.293v6.434c0,2.481-2.019,4.5-4.5,4.5h-6.293C-192.26-121.871-194.278-123.889-194.278-126.371z
		 M-137.318-105.056c0,2.481-2.019,4.5-4.5,4.5h-39.646c-2.481,0-4.5-2.019-4.5-4.5v-13.815h2.479c4.136,0,7.5-3.364,7.5-7.5v-6.434
		h38.667V-105.056z M-79.778-100.556h-39.648c-2.482,0-4.5-2.019-4.5-4.5v-27.749h48.648v27.749
		C-75.278-102.574-77.297-100.556-79.778-100.556z"/>
	<g>
		<circle fill="#F05A29" cx="-187.152" cy="-127.471" r="3.059"/>
	</g>
</g>
<g>
	<g>
		<path fill="#FFFFFF" d="M281.37-117.938l-29.223,18.44c-2,1.402-3.311,3.722-3.311,6.35c0,4.283,3.471,7.755,7.753,7.755
			c2.605,0,4.906-1.291,6.311-3.264L281.37-117.938z"/>
		<path fill="#F05A29" d="M256.59-83.894c-5.103,0-9.253-4.151-9.253-9.255c0-3.011,1.477-5.844,3.949-7.578l29.283-18.48
			c0.596-0.375,1.367-0.287,1.861,0.208c0.496,0.495,0.582,1.268,0.208,1.861L264.17-87.857
			C262.387-85.349,259.57-83.894,256.59-83.894z M276.566-113.134l-23.618,14.904c-1.612,1.133-2.611,3.047-2.611,5.081
			c0,3.449,2.805,6.255,6.253,6.255c2.012,0,3.915-0.984,5.09-2.634L276.566-113.134z"/>
	</g>
</g>
<g>
	<g>
		<path fill="#F05A29" d="M64.337-55.26l-0.036-0.002c-0.066-0.001-6.767-0.196-11.93-0.296
			c-8.164-0.155-13.683-5.657-14.061-14.018c-0.268-6.011-0.271-11.682-0.271-11.737c0-0.063,0.003-6.318,0.22-11.832
			c0.342-8.639,5.322-13.62,14.026-14.025c5.509-0.258,11.999-0.264,12.065-0.264c0.065,0,6.554,0.006,12.066,0.264
			c8.702,0.405,13.683,5.387,14.023,14.026c0.219,5.512,0.222,11.768,0.222,11.831c0,0.056-0.004,5.728-0.274,11.737
			c-0.372,8.36-5.891,13.862-14.058,14.018c-5.165,0.1-11.89,0.295-11.956,0.296L64.337-55.26z M64.35-104.987
			c-0.063,0-6.499,0.005-11.95,0.261c-7.47,0.348-11.405,4.277-11.696,11.678c-0.215,5.465-0.218,11.674-0.218,11.736
			c0,0.055,0.003,5.675,0.268,11.628c0.251,5.544,3.446,11.526,11.664,11.681c4.983,0.097,11.385,0.281,11.92,0.297
			c0.539-0.016,6.964-0.2,11.945-0.297c8.222-0.154,11.415-6.137,11.663-11.681c0.266-5.956,0.27-11.573,0.27-11.628
			c0-0.062-0.003-6.271-0.22-11.735c-0.291-7.401-4.226-11.331-11.693-11.679C70.847-104.982,64.413-104.987,64.35-104.987z"/>
	</g>
	<path fill="#F05A29" d="M75.703-74.002l-8.198-8.999l7.292-7.672c0.466-0.49,0.445-1.265-0.044-1.729
		c-0.489-0.467-1.263-0.447-1.729,0.044L57.413-75.935v-15.581c0-0.675-0.547-1.223-1.223-1.223c-0.675,0-1.223,0.548-1.223,1.223
		v18.644c0,0.5,0.305,0.95,0.77,1.136c0.147,0.059,0.301,0.088,0.453,0.088c0.329,0,0.651-0.134,0.886-0.381l8.74-9.194l8.079,8.868
		c0.241,0.266,0.571,0.4,0.904,0.4c0.294,0,0.589-0.105,0.822-0.319C76.122-72.729,76.158-73.502,75.703-74.002z"/>
</g>
<g>
	<path fill="#F05A29" d="M318-92.416c-0.828,0-1.5-0.672-1.5-1.5v-3.891c0-33.149-26.933-60.119-60.038-60.119
		c-33.107,0-60.04,26.969-60.04,60.119v3.891c0,0.828-0.672,1.5-1.5,1.5c-0.828,0-1.5-0.672-1.5-1.5v-3.891
		c0-34.804,28.279-63.119,63.04-63.119c34.76,0,63.038,28.315,63.038,63.119v3.891C319.5-93.088,318.828-92.416,318-92.416z"/>
</g>
<g>
	<path fill="#F05A29" d="M255.441-140.948c-0.002,0-0.004,0-0.007,0c-0.828-0.003-1.497-0.678-1.493-1.506l0.025-5.967
		c0.004-0.826,0.675-1.494,1.5-1.494c0.002,0,0.004,0,0.007,0c0.828,0.003,1.497,0.678,1.493,1.506l-0.025,5.967
		C256.938-141.615,256.267-140.948,255.441-140.948z"/>
</g>
<g>
	<path fill="#F05A29" d="M209.814-95.535c-0.002,0-0.004,0-0.007,0l-5.958-0.026c-0.828-0.004-1.497-0.678-1.493-1.507
		c0.004-0.826,0.675-1.493,1.5-1.493c0.002,0,0.004,0,0.007,0l5.958,0.026c0.828,0.004,1.497,0.678,1.493,1.507
		C211.31-96.202,210.639-95.535,209.814-95.535z"/>
</g>
<g>
	<path fill="#F05A29" d="M308.678-95.234c-0.002,0-0.003,0-0.005,0l-7.882-0.027c-0.829-0.003-1.498-0.677-1.495-1.505
		c0.003-0.827,0.674-1.495,1.5-1.495c0,0,0.003,0,0.005,0l7.882,0.027c0.829,0.003,1.498,0.677,1.495,1.505
		C310.175-95.902,309.504-95.234,308.678-95.234z"/>
</g>
<g>
	<path fill="#F05A29" d="M233.864-134.856c-0.465,0-0.924-0.216-1.217-0.621l-3.926-5.433c-0.485-0.671-0.334-1.609,0.337-2.094
		c0.671-0.485,1.609-0.335,2.095,0.337l3.926,5.433c0.485,0.671,0.334,1.609-0.337,2.094
		C234.477-134.948,234.169-134.856,233.864-134.856z"/>
</g>
<g>
	<path fill="#F05A29" d="M294.712-117.192c-0.464,0-0.922-0.215-1.216-0.62c-0.486-0.671-0.336-1.608,0.335-2.095l5.425-3.93
		c0.669-0.484,1.608-0.336,2.095,0.335c0.486,0.671,0.336,1.608-0.335,2.095l-5.425,3.93
		C295.325-117.285,295.018-117.192,294.712-117.192z"/>
</g>
<g>
	<path fill="#F05A29" d="M216.594-118.662c-0.246,0-0.496-0.061-0.727-0.188l-5.407-2.997c-0.725-0.402-0.986-1.315-0.584-2.039
		c0.401-0.725,1.315-0.986,2.039-0.585l5.407,2.998c0.725,0.402,0.986,1.315,0.584,2.039
		C217.633-118.941,217.121-118.662,216.594-118.662z"/>
</g>
<g>
	<path fill="#F05A29" d="M278.539-134.859c-0.246,0-0.495-0.061-0.726-0.188c-0.725-0.401-0.987-1.314-0.586-2.038l2.995-5.414
		c0.401-0.725,1.315-0.987,2.039-0.586c0.725,0.401,0.987,1.314,0.586,2.038l-2.995,5.414
		C279.579-135.139,279.066-134.859,278.539-134.859z"/>
</g>
<g>
	<path fill="#FFFFFF" d="M-382.268,38.062"/>
	<path fill="#FFFFFF" d="M-289.675,38.062"/>
</g>
<path fill="#F05A29" d="M-282.087,48.822c5.012,0,9.089-4.076,9.089-9.087c0-5.014-4.077-9.093-9.089-9.093h-6.088v-7.222
	c0-0.828-0.672-1.5-1.5-1.5h-93.653c-0.828,0-1.5,0.672-1.5,1.5v7.222h-6.088c-5.012,0-9.09,4.079-9.09,9.093
	c0,5.011,4.078,9.087,9.09,9.087c3.358,0,6.09,2.731,6.09,6.09c0,3.359-2.731,6.093-6.09,6.093c-0.828,0-1.5,0.672-1.5,1.5
	c0,0.828,0.672,1.5,1.5,1.5c5.012,0,9.09-4.079,9.09-9.093c0-0.031-0.004-0.061-0.005-0.091
	c5.933,16.008,20.106,28.042,37.34,30.923V101.8h-2.304c-4.136,0-7.5,2.548-7.5,5.68s3.364,5.68,7.5,5.68h21.644
	c4.136,0,7.5-2.548,7.5-5.68s-3.364-5.68-7.5-5.68h-2.299V85.554c16.751-3.189,30.467-15.053,36.277-30.731
	c-0.001,0.031-0.005,0.061-0.005,0.092c0,5.012,4.078,9.09,9.091,9.09c0.828,0,1.5-0.672,1.5-1.5c0-0.828-0.672-1.5-1.5-1.5
	c-3.358,0-6.091-2.732-6.091-6.09C-288.178,51.556-285.445,48.822-282.087,48.822z M-390.916,45.822c-3.358,0-6.09-2.73-6.09-6.087
	c0-3.359,2.731-6.093,6.09-6.093h6.088v4.419c0,4.067,0.511,8.017,1.46,11.794C-385.001,47.425-387.774,45.822-390.916,45.822z
	 M-320.651,107.479c0,1.268-1.848,2.68-4.5,2.68h-21.644c-2.652,0-4.5-1.412-4.5-2.68s1.848-2.68,4.5-2.68h21.644
	C-322.499,104.8-320.651,106.212-320.651,107.479z M-341.491,101.8V86.42h11.041v15.38H-341.491z M-336.502,83.411
	c-24.49,0-44.493-19.537-45.288-43.85h90.577C-292.008,63.874-312.012,83.411-336.502,83.411z M-291.175,36.562h-90.653V24.921
	h90.653V36.562z M-289.635,49.854c0.949-3.776,1.46-7.726,1.46-11.793v-4.419h6.088c3.357,0,6.089,2.733,6.089,6.093
	c0,3.356-2.732,6.087-6.089,6.087C-285.228,45.822-288.002,47.425-289.635,49.854z"/>
<g>
	<path fill="#F05A29" d="M-353.868,66.49c-0.828,0-1.5-0.672-1.5-1.5V51.661c0-0.828,0.672-1.5,1.5-1.5s1.5,0.672,1.5,1.5V64.99
		C-352.368,65.818-353.04,66.49-353.868,66.49z"/>
</g>
<g>
	<path fill="#F05A29" d="M-341.512,66.49c-4.501,0-8.162-3.663-8.162-8.165c0-4.502,3.661-8.164,8.162-8.164
		s8.163,3.662,8.163,8.164C-333.349,62.827-337.011,66.49-341.512,66.49z M-341.512,53.161c-2.847,0-5.162,2.316-5.162,5.164
		c0,2.848,2.315,5.165,5.162,5.165c2.847,0,5.163-2.317,5.163-5.165C-336.349,55.478-338.665,53.161-341.512,53.161z"/>
</g>
<g>
	<path fill="#F05A29" d="M-322.975,66.49c-4.502,0-8.165-3.663-8.165-8.165c0-4.502,3.663-8.164,8.165-8.164
		c4.499,0,8.159,3.662,8.159,8.164C-314.815,62.827-318.476,66.49-322.975,66.49z M-322.975,53.161
		c-2.848,0-5.165,2.316-5.165,5.164c0,2.848,2.317,5.165,5.165,5.165c2.845,0,5.159-2.317,5.159-5.165
		C-317.815,55.478-320.13,53.161-322.975,53.161z"/>
</g>
<path fill="#F05A29" d="M-80.478,49.108c5.014,0,9.093-4.078,9.093-9.092c0-5.018-4.079-9.1-9.093-9.1h-6.09v-7.229
	c0-0.828-0.672-1.5-1.5-1.5h-93.687c-0.828,0-1.5,0.672-1.5,1.5v7.229h-6.09c-5.014,0-9.092,4.082-9.092,9.1
	c0,5.014,4.078,9.092,9.092,9.092c3.36,0,6.094,2.735,6.094,6.098s-2.733,6.098-6.094,6.098c-0.828,0-1.5,0.672-1.5,1.5
	c0,0.828,0.672,1.5,1.5,1.5c5.015,0,9.094-4.081,9.094-9.098c0-0.03-0.004-0.06-0.005-0.091
	c5.935,16.02,20.114,28.062,37.353,30.946v16.069h-2.306c-4.136,0-7.5,2.55-7.5,5.685c0,3.135,3.364,5.685,7.5,5.685h21.654
	c4.136,0,7.5-2.55,7.5-5.685c0-3.135-3.364-5.685-7.5-5.685h-2.303v-16.26c16.758-3.192,30.478-15.065,36.29-30.756
	c0,0.031-0.005,0.062-0.005,0.093c0,5.016,4.079,9.096,9.094,9.096c0.828,0,1.5-0.672,1.5-1.5c0-0.828-0.672-1.5-1.5-1.5
	c-3.36,0-6.094-2.734-6.094-6.096C-86.571,51.845-83.838,49.108-80.478,49.108z M-189.344,46.108c-3.359,0-6.092-2.732-6.092-6.092
	c0-3.363,2.732-6.1,6.092-6.1h6.09v4.424c0,4.07,0.511,8.022,1.461,11.802C-183.428,47.711-186.201,46.108-189.344,46.108z
	 M-119.054,107.815c0,1.27-1.848,2.685-4.5,2.685h-21.654c-2.652,0-4.5-1.415-4.5-2.685c0-1.27,1.848-2.685,4.5-2.685h21.654
	C-120.901,105.131-119.054,106.546-119.054,107.815z M-139.902,102.131V86.737h11.046v15.394H-139.902z M-134.911,83.729
	c-24.499,0-44.51-19.554-45.305-43.888h90.61C-90.4,64.175-110.411,83.729-134.911,83.729z M-89.567,36.841h-90.687V25.188h90.687
	V36.841z M-88.028,50.144c0.95-3.779,1.461-7.733,1.461-11.803v-4.424h6.09c3.359,0,6.093,2.736,6.093,6.1
	c0,3.359-2.733,6.092-6.093,6.092C-83.62,46.108-86.395,47.712-88.028,50.144z"/>
<g>
	<path fill="#F05A29" d="M-136.404,66.792c-4.501,0-8.163-3.666-8.163-8.172c0-4.505,3.662-8.17,8.163-8.17
		c4.502,0,8.164,3.665,8.164,8.17C-128.24,63.126-131.902,66.792-136.404,66.792z M-136.404,53.45c-2.847,0-5.163,2.319-5.163,5.17
		c0,2.852,2.316,5.172,5.163,5.172c2.848,0,5.164-2.32,5.164-5.172C-131.24,55.77-133.557,53.45-136.404,53.45z"/>
</g>
<g>
	<path fill="#F05A29" d="M-117.861,66.792c-4.502,0-8.165-3.666-8.165-8.172c0-4.505,3.663-8.17,8.165-8.17
		c4.501,0,8.163,3.665,8.163,8.17C-109.698,63.126-113.36,66.792-117.861,66.792z M-117.861,53.45c-2.848,0-5.165,2.319-5.165,5.17
		c0,2.852,2.317,5.172,5.165,5.172c2.847,0,5.163-2.32,5.163-5.172C-112.698,55.77-115.015,53.45-117.861,53.45z"/>
</g>
<g>
	<path fill="#F05A29" d="M-147.817,66.792h-8.675c-0.828,0-1.5-0.672-1.5-1.5c0-2.753,1.824-5.315,4.76-6.687l0.27-0.126
		c2.64-1.234,3.309-1.687,3.309-2.963c0-1.708-1.602-2.066-2.944-2.066h-3.927c-0.828,0-1.5-0.672-1.5-1.5
		c0-0.828,0.672-1.5,1.5-1.5h3.927c3.611,0,5.944,1.988,5.944,5.066c0,3.324-2.448,4.469-5.039,5.681l-0.269,0.126
		c-0.544,0.254-2.023,1.052-2.693,2.469h6.837c0.828,0,1.5,0.672,1.5,1.5S-146.989,66.792-147.817,66.792z"/>
</g>
<g>
	<path fill="#F05A29" d="M-1034.168,38.527c3.6-2.178,6.004-6.017,6.004-10.392c0-6.776-5.748-12.289-12.813-12.289
		c-7.066,0-12.815,5.513-12.815,12.289c0,4.375,2.404,8.213,6.004,10.392c-8.286,2.719-14.268,10.229-14.268,19.067
		c0,0.828,0.671,1.5,1.5,1.5h39.154c0.006,0,0.013-0.001,0.02,0c0.829,0,1.5-0.672,1.5-1.5c0-0.087-0.007-0.173-0.021-0.256
		C-1020.018,48.611-1025.963,41.22-1034.168,38.527z M-1050.793,28.136c0-5.122,4.403-9.289,9.815-9.289
		c5.411,0,9.813,4.167,9.813,9.289c0,5.122-4.402,9.29-9.813,9.29C-1046.39,37.426-1050.793,33.258-1050.793,28.136z
		 M-1058.988,56.095c0.803-8.767,8.574-15.669,18.011-15.669c9.435,0,17.204,6.902,18.007,15.669H-1058.988z"/>
	<path fill="#F05A29" d="M-935.059,57.339c-0.114-8.727-6.059-16.118-14.263-18.812c3.601-2.178,6.005-6.017,6.005-10.392
		c0-6.776-5.749-12.289-12.814-12.289c-7.065,0-12.815,5.513-12.815,12.289c0,4.375,2.403,8.213,6.004,10.392
		c-8.285,2.719-14.266,10.229-14.266,19.067c0,0.828,0.672,1.5,1.5,1.5h39.15c0.008,0,0.015,0.001,0.019,0
		c0.829,0,1.5-0.672,1.5-1.5C-935.037,57.508-935.044,57.422-935.059,57.339z M-965.945,28.136c0-5.122,4.402-9.289,9.815-9.289
		s9.814,4.167,9.814,9.289c0,5.122-4.402,9.29-9.814,9.29S-965.945,33.258-965.945,28.136z M-974.139,56.095
		c0.803-8.767,8.573-15.669,18.008-15.669c9.434,0,17.203,6.902,18.006,15.669H-974.139z"/>
	<path fill="#F05A29" d="M-1021.923,22.038c7.109-3.803,15.189-5.812,23.365-5.812c8.178,0,16.26,2.011,23.37,5.814
		c0.226,0.121,0.468,0.178,0.707,0.178c0.535,0,1.054-0.287,1.323-0.792c0.392-0.731,0.116-1.64-0.614-2.03
		c-7.545-4.036-16.116-6.17-24.786-6.17c-8.668,0-17.237,2.133-24.78,6.168c-0.731,0.391-1.006,1.299-0.615,2.029
		C-1023.562,22.154-1022.652,22.431-1021.923,22.038z"/>
	<path fill="#F05A29" d="M-949.291,63.659c-0.842-0.063-1.547,0.557-1.609,1.383c-1.156,15.293-10.26,28.907-24.352,36.419
		c-0.732,0.39-1.008,1.298-0.618,2.028c0.27,0.507,0.788,0.795,1.324,0.795c0.238,0,0.479-0.057,0.704-0.177
		c15.005-7.997,24.699-22.517,25.934-38.839C-947.846,64.442-948.465,63.722-949.291,63.659z"/>
	<path fill="#F05A29" d="M-1021.843,101.472c-14.103-7.509-23.213-21.127-24.369-36.43c-0.062-0.825-0.779-1.445-1.608-1.383
		c-0.826,0.062-1.445,0.783-1.383,1.609c1.233,16.332,10.934,30.856,25.95,38.852c0.225,0.119,0.466,0.176,0.704,0.176
		c0.537,0,1.056-0.288,1.326-0.795C-1020.834,102.77-1021.112,101.861-1021.843,101.472z"/>
	<path fill="#F05A29" d="M-991.732,97.979c3.6-2.179,6.004-6.017,6.004-10.393c0-6.776-5.749-12.289-12.814-12.289
		c-7.065,0-12.813,5.513-12.813,12.289c0,4.376,2.403,8.214,6.002,10.393c-8.286,2.718-14.267,10.229-14.267,19.068
		c0,0.828,0.671,1.5,1.5,1.5h39.158c0.008,0.001,0.016,0,0.02,0c0.829,0,1.5-0.672,1.5-1.5c0-0.087-0.007-0.173-0.021-0.256
		C-977.579,108.063-983.525,100.672-991.732,97.979z M-1008.356,87.587c0-5.122,4.402-9.289,9.813-9.289
		c5.412,0,9.814,4.167,9.814,9.289c0,5.123-4.402,9.291-9.814,9.291C-1003.954,96.878-1008.356,92.71-1008.356,87.587z
		 M-1016.553,115.548c0.802-8.769,8.573-15.67,18.01-15.67c9.438,0,17.209,6.901,18.012,15.67H-1016.553z"/>
</g>
<g>
	<g>
		<path fill="#F05A29" d="M-829.29,34.121c-0.384,0-0.767-0.146-1.06-0.439c-0.587-0.585-0.587-1.535-0.002-2.121
			c14.846-14.87,34.585-23.061,55.582-23.062c0.002,0,0.004,0,0.004,0c21,0,40.742,8.19,55.593,23.062
			c0.585,0.586,0.585,1.535-0.002,2.121c-0.586,0.584-1.535,0.586-2.121-0.002C-735.578,19.378-754.569,11.5-774.765,11.5
			c-0.003,0-0.002,0-0.005,0c-20.194,0.001-39.181,7.879-53.459,22.181C-828.521,33.975-828.906,34.121-829.29,34.121z"/>
	</g>
	<g>
		<path fill="#F05A29" d="M-812.903,51.749c-0.384,0-0.767-0.146-1.06-0.438c-0.587-0.585-0.587-1.535-0.002-2.121
			c10.471-10.488,24.393-16.265,39.2-16.265c14.809,0,28.731,5.776,39.203,16.265c0.585,0.586,0.585,1.536-0.002,2.121
			c-0.587,0.584-1.536,0.586-2.121-0.002c-9.905-9.92-23.073-15.384-37.08-15.384c-14.005,0-27.173,5.464-37.077,15.384
			C-812.135,51.603-812.52,51.749-812.903,51.749z"/>
	</g>
	<g>
		<path fill="#F05A29" d="M-796.593,69.389c-0.384,0-0.767-0.146-1.06-0.438c-0.586-0.585-0.587-1.534-0.002-2.121
			c6.112-6.125,14.24-9.499,22.889-9.5c0,0,0.001,0,0.002,0c8.648,0,16.778,3.374,22.893,9.5c0.585,0.586,0.584,1.536-0.002,2.121
			c-0.587,0.584-1.536,0.586-2.121-0.002c-5.547-5.558-12.924-8.619-20.769-8.619c-0.001,0-0.001,0-0.001,0
			c-7.847,0.001-15.221,3.061-20.767,8.619C-795.824,69.242-796.208,69.389-796.593,69.389z"/>
	</g>
</g>
<path fill="#F05A29" d="M-719.808,90.16l-0.297-0.696c-0.787-1.847-2.243-3.253-4.101-3.962c-1.858-0.708-3.881-0.629-5.7,0.226
	l-23.091,10.908c-0.886-1.866-2.524-3.367-4.657-3.993l-15.779-4.632c-3.188-0.935-8.392-2.384-11.602-3.227
	c-0.538-0.14-14.463-3.441-29.459-1.154c-0.001,0-0.001,0-0.002,0.001v-0.001l-22.634,3.452c-1.987,0.302-3.708,1.363-4.848,2.988
	c-1.139,1.625-1.55,3.605-1.157,5.576l2.215,11.11c0.392,1.967,1.528,3.645,3.202,4.724c1.672,1.078,3.669,1.42,5.625,0.967
	l17.91-4.177c2.898-0.675,7.649-0.224,10.371,0.991c0.304,0.136,7.553,3.346,17.273,5.631c6.294,1.479,12.055,2.219,17.25,2.219
	c5.679,0,10.683-0.884,14.966-2.651c18.904-7.809,30.755-14.011,30.873-14.072C-719.845,98.492-718.212,93.905-719.808,90.16z
	 M-724.844,97.73c-0.117,0.062-11.857,6.205-30.622,13.955c-18.234,7.529-46.835-5.036-47.122-5.165
	c-3.332-1.484-8.726-1.998-12.275-1.173l-17.91,4.177c-1.153,0.271-2.334,0.069-3.318-0.566c-0.984-0.635-1.653-1.625-1.886-2.788
	l-2.215-11.11c-0.23-1.16,0.008-2.32,0.673-3.269c0.664-0.947,1.673-1.566,2.843-1.745l22.635-3.452
	c14.365-2.189,28.119,1.058,28.246,1.092c3.187,0.837,8.354,2.274,11.518,3.204l15.779,4.632c2.382,0.699,3.753,3.206,3.056,5.591
	l-0.212,0.729c-0.7,2.396-3.231,3.812-5.637,3.152c-0.153-0.041-15.462-4.229-34.225-10.008c-0.799-0.242-1.632,0.201-1.875,0.992
	c-0.244,0.792,0.2,1.631,0.992,1.875c18.812,5.794,34.164,9.993,34.316,10.035c0.66,0.18,1.325,0.266,1.98,0.266
	c3.297,0,6.362-2.172,7.327-5.473l0.212-0.729c0.229-0.781,0.318-1.569,0.294-2.342l23.641-11.168
	c1.072-0.504,2.263-0.554,3.354-0.137c1.09,0.415,1.945,1.244,2.41,2.334l0.297,0.696C-721.586,93.638-722.629,96.566-724.844,97.73
	z"/>
<g>
	<path fill="none" stroke="#F05A29" stroke-width="3" stroke-linecap="round" stroke-linejoin="round" stroke-miterlimit="10" d="
		M11-154.238c30.111-30.161,78.938-30.161,109.056,0"/>
	<path fill="none" stroke="#F05A29" stroke-width="3" stroke-linecap="round" stroke-linejoin="round" stroke-miterlimit="10" d="
		M27.387-136.61c21.064-21.099,55.215-21.099,76.28,0"/>
	<path fill="none" stroke="#F05A29" stroke-width="3" stroke-linecap="round" stroke-linejoin="round" stroke-miterlimit="10" d="
		M43.697-118.97c12.053-12.079,31.605-12.079,43.66,0"/>
</g>
<path fill="#F05A29" d="M-497.485,38.134c0-4.136-3.364-7.5-7.5-7.5h-37.232c1.874-0.731,3.477-1.601,4.514-2.637
	c4.884-4.887,4.965-12.754,0.181-17.538c-2.285-2.285-5.341-3.544-8.604-3.544c-3.36,0-6.533,1.322-8.935,3.723
	c-2.192,2.192-3.646,6.905-4.583,11.407c-0.937-4.502-2.391-9.214-4.583-11.405c-2.4-2.4-5.574-3.723-8.935-3.723
	c-3.263,0-6.318,1.258-8.603,3.542c-2.323,2.323-3.582,5.431-3.543,8.751c0.039,3.306,1.36,6.427,3.722,8.788
	c1.036,1.036,2.638,1.906,4.511,2.636h-37.243c-4.136,0-7.5,3.364-7.5,7.5v19.023l0,0v0.001c0,0.828,0.672,1.5,1.5,1.5h10.718v51.74
	c0,4.136,3.364,7.5,7.5,7.5h84.914c4.136,0,7.5-3.364,7.5-7.5v-51.74h10.702c0.828,0,1.5-0.672,1.5-1.5v-0.001l0,0V38.134z
	 M-504.985,33.634c2.481,0,4.5,2.019,4.5,4.5v17.524h-57.659V33.947c0.713-0.071,1.637-0.174,2.707-0.313H-504.985z
	 M-552.941,12.759c1.834-1.834,4.254-2.844,6.813-2.844c2.462,0,4.765,0.946,6.483,2.665c3.614,3.614,3.533,9.579-0.181,13.296
	c-2.478,2.477-10.35,4.018-15.863,4.758h-2.257C-557.342,25.244-555.742,15.561-552.941,12.759z M-579.466,25.877
	c-1.804-1.804-2.813-4.185-2.843-6.702c-0.029-2.505,0.917-4.848,2.664-6.595c1.718-1.717,4.02-2.663,6.482-2.663
	c2.56,0,4.979,1.01,6.813,2.844c2.801,2.801,4.402,12.483,5.006,17.873h-2.26C-569.118,29.895-576.988,28.354-579.466,25.877z
	 M-614.319,33.634h50.465c1.071,0.14,1.996,0.242,2.71,0.313v21.711h-57.675V38.134C-618.819,35.652-616.801,33.634-614.319,33.634z
	 M-606.602,110.398v-51.74h45.457v56.24h-40.957C-604.583,114.898-606.602,112.88-606.602,110.398z M-512.688,110.398
	c0,2.481-2.018,4.5-4.5,4.5h-40.957v-56.24h45.457V110.398z"/>
<path fill="#FFFFFF" d="M64,6c31.981,0,58,26.019,58,58s-26.019,58-58,58C32.019,122,6,95.981,6,64S32.019,6,64,6 M64,0
	C28.654,0,0,28.654,0,64s28.654,64,64,64c35.346,0,64-28.654,64-64S99.346,0,64,0L64,0z"/>
<polygon fill="#FFFFFF" stroke="#FFFFFF" stroke-width="4" stroke-linecap="round" stroke-linejoin="round" stroke-miterlimit="10" points="
	49.283,63.954 49.283,39.863 70.147,51.909 91.011,63.954 70.147,76 49.283,88.046 "/>
<g>
</g>
<g>
</g>
<g>
</g>
<g>
</g>
<g>
</g>
<g>
</g>
</svg>
